<?xml version="1.0"?>
<svg width="640" height="480" xmlns="http://www.w3.org/2000/svg" xmlns:svg="http://www.w3.org/2000/svg">
 <!-- Created with SVG-edit - https://github.com/SVG-Edit/svgedit-->
 <g class="layer">
  <title>Layer 1</title>
  <path d="m317.48051,348.51076c0,4.50504 -3.70657,8.15491 -8.28163,8.15491l-53.03333,0c-4.57504,0 -8.28162,-3.64985 -8.28162,-8.15491l0,-110.94732c0,-4.5047 3.70657,-8.15491 8.28162,-8.15491l53.03333,0c4.57506,0 8.28163,3.65021 8.28163,8.15491l0,110.94732zm-196.34403,0c0,4.50504 -3.7073,8.15491 -8.28163,8.15491l-53.03405,0c-4.57433,0 -8.28162,-3.64985 -8.28162,-8.15491l0,-110.94732c0,-4.5047 3.70729,-8.15491 8.28162,-8.15491l53.03405,0c4.57433,0 8.28163,3.65021 8.28163,8.15491l0,110.94732zm64.07144,-300.84509c-95.96648,0 -173.86902,76.01692 -175.06541,170.22678l30.38219,0c0.98518,-77.86548 65.37379,-140.69121 144.68322,-140.69121c79.30942,0 143.69807,62.82573 144.67173,140.69121l30.38148,0c-1.1842,-94.20986 -79.10966,-170.22678 -175.05322,-170.22678l0.00001,0zm-174.81911,256.52391l29.83089,0l0,-86.47056l-29.83089,0l0,86.47056zm319.24458,-86.4822l0,86.47093l30.93275,0l0,-86.47093l-30.93275,0z" fill="#ffffff" id="svg_3" stroke="#000000" stroke-dasharray="null" stroke-linecap="null" stroke-linejoin="null" stroke-width="5"/>
  <circle cx="188.000006" cy="294.500003" fill="#000000" id="svg_4" r="61.160141" stroke="#000000" stroke-dasharray="null" stroke-linecap="null" stroke-linejoin="null" stroke-width="5"/>
  <circle cx="187.5" cy="292.5" fill="#ffffff" id="svg_5" r="21.260292" stroke="#000000" stroke-dasharray="null" stroke-linecap="null" stroke-linejoin="null" stroke-width="5"/>
  <circle cx="187.5" cy="293.5" fill="#ffffff" id="svg_7" r="4.24264" stroke="#000000" stroke-dasharray="null" stroke-linecap="null" stroke-linejoin="null" stroke-width="5"/>
  <path d="m15.9385,354.76477c-1.56625,-0.27323 -2.10634,-2.18196 -1.17255,-3.3255c1.23927,-1.76856 3.89017,-2.96079 5.96719,-1.84488c0.04139,-6.22781 0.0175,-12.45597 0.02383,-18.68393c5.17891,-1.00786 10.36903,-1.96387 15.5499,-2.96296c-0.01122,6.98 -0.02244,13.96001 -0.03366,20.94001c-0.81163,2.11117 -3.43423,3.57514 -5.71784,2.9205c-1.35955,-0.39258 -1.68548,-2.08539 -0.92843,-3.1226c1.03671,-1.54719 2.96629,-2.60947 4.90614,-2.31966c0.55358,-0.05402 1.36876,0.81052 1.13478,-0.1675c0,-4.8926 0,-9.7852 0,-14.6778c-4.75403,0.92317 -9.51745,1.80248 -14.27367,2.71565c-0.01624,5.69351 0.04041,11.38788 -0.04238,17.08068c-0.15134,1.72918 -1.872,2.90891 -3.4782,3.36984c-0.63453,0.10322 -1.29522,0.16727 -1.93511,0.07814l0,0.00001zm12.40136,-23.21233c2.44263,-0.4637 4.88642,-0.92182 7.328,-1.39066c0.31072,-1.19408 -1.07986,-0.41861 -1.75993,-0.38946c-4.17065,0.79418 -8.34372,1.57661 -12.51374,2.37387c-0.31072,1.19409 1.07986,0.41861 1.75992,0.38946c1.72841,-0.32859 3.45705,-0.65606 5.18575,-0.98321l0,0z" fill="#ffffff" id="svg_8" stroke="#000000" stroke-dasharray="null" stroke-linecap="null" stroke-linejoin="null" stroke-width="5"/>
  <path d="m270.92555,205.81799c-1.63262,-0.25341 -2.10121,-2.68912 -1.01914,-3.96109c1.18469,-1.80642 3.45194,-2.94656 5.30353,-1.83409c0.07546,-6.88365 0.03277,-13.76873 0.04403,-20.65299c9.34822,-2.16645 18.70926,-4.2613 28.06149,-6.40492c-0.02695,7.6106 0.06581,15.2237 -0.06511,22.83231c-0.22449,1.9628 -1.95409,3.26633 -3.51115,3.67395c-1.36439,0.48447 -3.28566,-0.56523 -2.96255,-2.4578c0.39956,-2.04698 2.22268,-3.52192 3.97529,-3.70136c0.86791,-0.38587 2.30128,1.2751 1.90231,-0.56851c0.02489,-3.69374 0.01239,-7.38762 0.01544,-11.08143c-4.36433,0.98809 -8.72754,1.9832 -13.09134,2.97477c-0.02618,4.81871 0.0634,9.6409 -0.06728,14.45696c-0.36262,2.09989 -2.3146,3.48793 -4.07666,3.59679c-1.69902,0.38267 -3.08871,-1.90487 -2.0452,-3.57183c1.0995,-2.06969 3.61018,-3.46365 5.58001,-2.20888c0.03786,-4.03902 0.01632,-8.07859 0.02195,-12.11781c-4.37847,1.03372 -8.77163,1.98748 -13.15013,3.02121c-0.02935,4.87896 0.07179,9.76404 -0.07992,14.6381c-0.5936,2.23465 -2.87884,3.68273 -4.83557,3.36663l0,0l0,0l0,-0.00001zm11.56131,-21.04157c2.14826,-0.49548 4.30013,-0.97171 6.44296,-1.49765c0.33657,-1.78826 -2.04297,0.01149 -2.89109,-0.17278c-3.39891,0.77603 -6.79962,1.54151 -10.1977,2.32236c-0.25839,1.72353 1.74249,0.1636 2.5623,0.27994c1.36107,-0.31128 2.72226,-0.62181 4.08353,-0.93187l0,0zm-0.24686,-2.31665c2.25035,-0.51316 4.50179,-1.01965 6.75117,-1.53831c0.18692,-1.72677 -1.95104,-0.03685 -2.78525,-0.20433c-3.44601,0.7812 -6.89042,1.5717 -10.33553,2.3582c-0.31638,1.66859 1.66006,0.16842 2.44222,0.27809c1.30903,-0.29842 2.61819,-0.59617 3.92738,-0.89365l0.00001,0zm14.04534,-0.8587c2.12804,-0.48399 4.25607,-0.96798 6.38417,-1.4519c0.1999,-1.72159 -1.88241,-0.11851 -2.73224,-0.24797c-3.44376,0.78289 -6.88646,1.57183 -10.32963,2.35819c-0.40571,1.45883 0.98004,0.52125 1.69608,0.47392c1.66056,-0.37716 3.32112,-0.75467 4.98162,-1.13225l0,0.00001zm-13.78117,-1.54178c2.15255,-0.49188 4.30513,-0.98371 6.45765,-1.47558c0.36263,-1.75636 -1.63532,-0.23781 -2.43554,-0.3357c-3.55368,0.82811 -7.10671,1.65985 -10.6619,2.47912c-0.20591,1.79846 2.14318,-0.04882 3.01813,0.15639c1.20743,-0.27348 2.41462,-0.54845 3.62166,-0.82424l0,0l0,0.00001zm13.66382,-0.80602c2.16725,-0.49287 4.3345,-0.98573 6.5017,-1.4786c0.25713,-1.65331 -1.64565,-0.17347 -2.42022,-0.28367c-3.55671,0.81201 -7.11529,1.61301 -10.67124,2.42978c-0.05489,1.70347 2.24656,-0.06759 3.21862,0.09737c1.12381,-0.2543 2.24756,-0.50935 3.37114,-0.76488l0,0zm-0.04403,-2.33388c2.16021,-0.50302 4.33128,-0.961 6.48449,-1.49395c0.32266,-1.7484 -2.0756,0.05643 -2.91534,-0.14459c-3.34947,0.7582 -6.71198,1.45948 -10.05412,2.24901c-0.35763,1.84988 2.08254,0.00614 2.95662,0.19184c1.17606,-0.26782 2.35217,-0.53519 3.52835,-0.80231l0,0z" fill="#000000" id="svg_9" stroke="#000000" stroke-dasharray="null" stroke-linecap="null" stroke-linejoin="null" stroke-width="5"/>
  <g id="svg_27"/>
  <text fill="#ffffff" font-family="serif" font-size="24" id="svg_34" stroke="#000000" stroke-dasharray="null" stroke-linecap="null" stroke-linejoin="null" stroke-width="0" text-anchor="middle" transform="matrix(4.07919 0 0 4.5233 -1180.81 -561.663)" x="406.53211" xml:space="preserve" y="160.836634">Retro</text>
  <text fill="#ffffff" font-family="serif" font-size="24" id="svg_35" stroke="#000000" stroke-dasharray="null" stroke-linecap="null" stroke-linejoin="null" stroke-width="0" text-anchor="middle" transform="matrix(2.38462 0 0 2 -650.769 -207.5)" x="475.241936" xml:space="preserve" y="222.5">Music</text>
  <text fill="#ffffff" font-family="serif" font-size="24" id="svg_36" stroke="#000000" stroke-dasharray="null" stroke-linecap="null" stroke-linejoin="null" stroke-width="0" text-anchor="middle" transform="matrix(4.12993 0 0 3.07407 -1364.39 -486.37)" x="449.496735" xml:space="preserve" y="264.608434">Blog</text>
 </g>
</svg>